<svg width="176" height="212" viewBox="0 0 176 212" fill="none" xmlns="http://www.w3.org/2000/svg">
<g id="Group 2">
<path id="Vector" d="M87.2998 23.0088L87.335 23.0293L87.3721 23.0469L129.332 43.25L129.334 43.251C157.347 56.6819 175 85.0801 175 115.779V210.355H163.009C162.658 171.453 141.886 135.697 108.527 116.152L107.73 115.689L107.728 115.688L88.6904 104.81L87.1943 103.955V104.176L86.3213 103.677V22.4346L87.2998 23.0088ZM12.9912 1C13.3415 39.9026 34.1143 75.6586 67.4727 95.2031L68.2695 95.666L68.2725 95.667L87.1943 106.479V187.618L46.668 168.105L46.666 168.104L45.3604 167.465C18.1057 153.786 1 125.796 1 95.5762V1H12.9912Z" fill="#66D9FF" stroke="black" stroke-width="2"/>
</g>
</svg>
